<?xml version="1.0" encoding="UTF-8"?>
<svg version="1.1" xmlns="http://www.w3.org/2000/svg" width="512" height="512">
<path d="M0 0 C2.23546096 -0.00219761 4.4704355 -0.0204644 6.70581055 -0.03930664 C23.01888332 -0.10467861 37.73617914 1.9216713 49.91479492 13.72827148 C55.83241167 20.16803089 60.11015165 26.63404381 62.17260742 35.18530273 C62.3438916 35.85730713 62.51517578 36.52931152 62.69165039 37.22167969 C63.36780089 41.38807099 63.3548097 45.49392638 63.37573242 49.70874023 C63.38274673 50.63855209 63.38976105 51.56836395 63.39698792 52.52635193 C63.41452675 55.53771782 63.42084694 58.54888754 63.42260742 61.56030273 C63.42328217 62.58417084 63.42395691 63.60803894 63.4246521 64.66293335 C63.40917488 79.38986513 63.00669767 93.69411545 60.17260742 108.18530273 C60.00100098 109.12390137 59.82939453 110.0625 59.65258789 111.02954102 C48.30442464 172.75989823 19.87792994 232.57773679 -22.77270508 278.94702148 C-24.70841861 281.05569801 -26.58559234 283.20316601 -28.45239258 285.37280273 C-31.2063375 288.53920485 -34.11243301 291.49170509 -37.10473633 294.43139648 C-38.7870233 296.14420114 -40.33843017 297.91637718 -41.88989258 299.74780273 C-49.25562044 308.28004858 -57.42816459 316.32826366 -66.03051758 323.60717773 C-68.75183635 325.99720552 -71.25630534 328.5903155 -73.77270508 331.19311523 C-75.82739258 333.18530273 -75.82739258 333.18530273 -78.91210938 334.88525391 C-81.3202563 336.90513773 -81.79659573 338.01786334 -82.37390137 341.15661621 C-82.57063474 345.10377245 -82.57897339 349.02880157 -82.52661133 352.97827148 C-82.53024904 354.44933613 -82.53695687 355.92039608 -82.54658508 357.39143372 C-82.56564277 361.26273648 -82.55164727 365.13314192 -82.52807617 369.00439453 C-82.49369258 375.18134364 -82.49967563 381.35806179 -82.52420998 387.53502846 C-82.52655716 389.67880105 -82.50887223 391.82171253 -82.48893738 393.96537781 C-82.45647157 403.9879769 -83.3678141 412.70594818 -89.51489258 420.93530273 C-90.13750977 421.79639648 -90.76012695 422.65749023 -91.40161133 423.54467773 C-98.89060758 431.69695062 -108.89382604 435.99599238 -118.65551758 440.82983398 C-120.29389167 441.64782702 -121.9319688 442.4664151 -123.56976318 443.28556824 C-126.98652137 444.99239055 -130.40588147 446.69383944 -133.82739258 448.39111328 C-138.21181586 450.5662661 -142.590843 452.75202663 -146.96815872 454.94144154 C-150.34312925 456.62865503 -153.72016747 458.31169284 -157.09792328 459.99332237 C-158.71393215 460.7981477 -160.32946047 461.60393867 -161.94449615 462.4107151 C-164.19677513 463.53468697 -166.45160919 464.65335255 -168.70727539 465.77050781 C-169.37228058 466.10346359 -170.03728577 466.43641937 -170.72244263 466.77946472 C-176.75610271 469.75455928 -182.10081701 471.15728738 -188.82739258 470.18530273 C-194.45045345 467.89259602 -197.91738949 464.53970841 -200.82739258 459.18530273 C-201.80378689 456.25611981 -201.94875438 454.39504535 -201.94091797 451.34667969 C-201.94084244 450.36588943 -201.94076691 449.38509918 -201.94068909 448.37458801 C-201.9355278 447.31825668 -201.93036652 446.26192535 -201.92504883 445.17358398 C-201.92292641 443.54854195 -201.92292641 443.54854195 -201.92076111 441.89067078 C-201.91515817 438.42635348 -201.90260516 434.96210053 -201.88989258 431.49780273 C-201.88487796 429.15079846 -201.88031498 426.80379317 -201.8762207 424.45678711 C-201.86518779 418.69960365 -201.84844678 412.94245779 -201.82739258 407.18530273 C-202.42822662 407.3261882 -203.02906067 407.46707367 -203.64810181 407.61222839 C-204.44541718 407.79513931 -205.24273254 407.97805023 -206.06420898 408.16650391 C-206.85066803 408.34863937 -207.63712708 408.53077484 -208.44741821 408.71842957 C-212.04158596 409.42348778 -215.54914875 409.52713752 -219.20239258 409.49780273 C-219.93917236 409.49288818 -220.67595215 409.48797363 -221.43505859 409.48291016 C-227.58896502 409.35166092 -233.06155322 408.41488246 -238.82739258 406.18530273 C-239.63047852 405.89139648 -240.43356445 405.59749023 -241.26098633 405.29467773 C-246.48114799 403.05627241 -250.50839586 399.88433132 -254.61303711 396.01586914 C-255.1718564 395.49422495 -255.7306757 394.97258076 -256.30642891 394.43512917 C-263.81052063 387.38431567 -271.09253258 380.10478448 -278.38208008 372.83374023 C-279.14473301 372.07391468 -279.90738594 371.31408913 -280.69314957 370.53123856 C-284.71745629 366.52178607 -288.73898725 362.50957519 -292.75805664 358.49487305 C-296.88326048 354.37518077 -301.01768918 350.26487622 -305.15427971 346.15662193 C-308.36281448 342.96677297 -311.56456128 339.77017519 -314.76453018 336.57173538 C-316.28573682 335.05353463 -317.80941921 333.53780996 -319.33572006 332.02473068 C-333.78553689 317.69135259 -345.53049558 304.57678578 -346.07739258 283.24780273 C-345.97994278 279.37665085 -345.47233317 275.6828764 -344.81176758 271.86889648 C-344.62839844 270.80082764 -344.4450293 269.73275879 -344.25610352 268.63232422 C-344.11462891 267.82480713 -343.9731543 267.01729004 -343.82739258 266.18530273 C-344.43603149 266.18387772 -345.04467041 266.1824527 -345.67175293 266.1809845 C-352.0317029 266.16123103 -358.39070039 266.10683642 -364.75024414 266.03271484 C-367.12061723 266.00958057 -369.49109245 265.99514992 -371.86157227 265.98974609 C-375.27790638 265.9804236 -378.69264423 265.93935736 -382.10864258 265.89233398 C-383.6872406 265.89823296 -383.6872406 265.89823296 -385.29772949 265.9042511 C-392.03934232 265.77188231 -396.6335845 264.61292254 -401.82739258 260.18530273 C-405.51045566 255.93561456 -407.0637157 251.80266512 -406.82739258 246.18530273 C-405.1078773 236.93346669 -400.30562252 228.54042449 -396.12426758 220.21264648 C-395.36020976 218.67928462 -394.59656575 217.14571649 -393.83331299 215.61195374 C-392.23817072 212.41130957 -390.63713893 209.21369938 -389.03198242 206.01806641 C-386.9879343 201.94715046 -384.96027313 197.86832332 -382.93717575 193.78696346 C-381.36567568 190.62187686 -379.78473507 187.4615769 -378.20108795 184.30255318 C-377.45018406 182.80155874 -376.70230087 181.29904879 -375.95766449 179.79493523 C-368.80461835 165.36825 -361.85685792 153.98363599 -346.31958008 147.94702148 C-341.35020199 146.42816768 -336.58985838 146.06967077 -331.4140625 146.13867188 C-330.16223679 146.15100357 -328.91041107 146.16333527 -327.62065125 146.17604065 C-326.95897131 146.18395693 -326.29729137 146.19187321 -325.61556053 146.20002937 C-321.33293763 146.24254886 -317.05001583 146.23030154 -312.7672224 146.23014164 C-309.01762273 146.23313879 -305.26968641 146.25386278 -301.52050781 146.31201172 C-297.87527964 146.36747015 -294.23282551 146.37355537 -290.58730507 146.34731865 C-289.2074738 146.34609203 -287.82750135 146.36234917 -286.44811058 146.39723396 C-278.20051071 146.62135692 -278.20051071 146.62135692 -271.04957581 143.0241394 C-268.77533304 140.51097279 -266.79729924 137.9398901 -264.82739258 135.18530273 C-263.5992837 133.81243624 -262.35401206 132.45442388 -261.08129883 131.12280273 C-260.4805957 130.48004395 -259.87989258 129.83728516 -259.26098633 129.17504883 C-252.71012221 122.2087724 -246.07773313 115.33381138 -239.32739258 108.56030273 C-238.5985083 107.82682617 -237.86962402 107.09334961 -237.11865234 106.33764648 C-233.09184341 102.3223493 -228.96593312 98.48785441 -224.65844727 94.77563477 C-222.11003563 92.56225431 -219.66223893 90.2462823 -217.20239258 87.93530273 C-159.46145093 34.58348409 -78.92064461 -0.00866403 0 0 Z M-131.83129883 92.66186523 C-144.4102506 108.56402344 -148.40605304 127.34101587 -146.82739258 147.18530273 C-144.92760258 161.67321052 -138.57490116 175.3162189 -128.82739258 186.18530273 C-128.1493457 186.94456055 -127.47129883 187.70381836 -126.77270508 188.48608398 C-113.04971166 203.01487595 -94.55927529 210.18645304 -74.88989258 211.43530273 C-53.87487588 211.0381117 -36.44485254 203.0410275 -21.30395508 188.81420898 C-7.98384891 174.97130002 -1.34788946 156.92307929 -0.51489258 137.87280273 C-1.12220675 117.18616364 -9.50396444 98.78125101 -24.19067383 84.34887695 C-39.71974314 69.71983202 -58.7338331 64.25844958 -79.66723633 64.84155273 C-100.60939674 65.91807282 -118.38613002 77.08368391 -131.83129883 92.66186523 Z " fill="#000000" transform="translate(448.827392578125,-0.185302734375)"/>
<path d="M0 0 C13.6464538 11.16952897 22.14925974 28.85251436 24.40625 46.10546875 C26.30829174 65.23395668 22.12995866 84.73336126 10 100 C-5.76959693 118.36885766 -26.80657514 127.66387931 -50 133 C-51.02746338 133.23904053 -51.02746338 133.23904053 -52.07568359 133.48291016 C-60.23945188 135.29198366 -60.23945188 135.29198366 -64 135 C-68.98061583 130.97908089 -70.86299901 127.159437 -72 121 C-72.2818999 117.31919277 -72.43185038 113.63191867 -72.44628906 109.94042969 C-72.52756371 106.43605804 -72.72020018 104.38045586 -74.82421875 101.51953125 C-77.02866571 99.73923257 -77.02866571 99.73923257 -80.375 99.5 C-86.31596257 101.95832934 -87.56706886 107.32099229 -90 113 C-94.7971291 123.6845148 -98.94151998 129.78346343 -109.94140625 134.25390625 C-115.02274251 136.09552907 -119.63786725 136.25945804 -125 136 C-128 134 -128 134 -129 131 C-129.10190405 129.40347003 -129.1483841 127.80309719 -129.16113281 126.20336914 C-129.17554413 124.73892113 -129.17554413 124.73892113 -129.19024658 123.24488831 C-129.19449646 122.18567673 -129.19874634 121.12646515 -129.203125 120.03515625 C-129.20882507 118.93264023 -129.21452515 117.83012421 -129.22039795 116.69419861 C-129.22986021 114.34798136 -129.23638678 112.00175075 -129.24023438 109.65551758 C-129.24980206 106.13532609 -129.28075431 102.61575402 -129.3125 99.09570312 C-129.39498421 81.77478498 -128.3076262 64.91440842 -123.25 48.25 C-122.99395996 47.38640869 -122.73791992 46.52281738 -122.47412109 45.63305664 C-118.48832634 32.61976113 -113.20243715 20.94205116 -105 10 C-104.45859375 9.27425781 -103.9171875 8.54851562 -103.359375 7.80078125 C-77.5274756 -24.11290029 -30.70150156 -23.83406042 0 0 Z " fill="#000000" transform="translate(129,376)"/>
</svg>
